{"title":"Coco.Avant.Chanel.2009.SWESUB.DVDRip.XviD.AC3.(5.1).-Zen_Bud","uid":5603789,"size":1470615078,"categoryP":"video","categoryS":"movies","magnet":"?xt=urn:btih:d64423835590de1a0c0061a4a1d1d55a9d2ab002&amp;dn=Coco.Avant.Chanel.2009.SWESUB.DVDRip.XviD.AC3.%285.1%29.-Zen_Bud&amp;tr=udp%3A%2F%2Ftracker.openbittorrent.com%3A80&amp;tr=udp%3A%2F%2Fopen.demonii.com%3A1337&amp;tr=udp%3A%2F%2Ftracker.coppersurfer.tk%3A6969&amp;tr=udp%3A%2F%2Fexodus.desync.com%3A6969","seeders":13,"leechers":0,"uploader":"Zen_Bud","files":1,"time":1275468721,"description":"General\nComplete name                    : Coco.Avant.Chanel.avi\nFormat                           : AVI\nFile size                        : 1.37 GiB\nDuration                         : 1h 45mn\nOverall bit rate                 : 1 855 Kbps\n\nVideo\nID                               : 0\nFormat                           : MPEG-4 Visual\nCodec ID/Hint                    : XviD\nDuration                         : 1h 45mn\nBit rate                         : 1 460 Kbps\nWidth                            : 720 pixels\nHeight                           : 438 pixels\nDisplay aspect ratio             : 2.35:1\nStream size                      : 1.08 GiB (79%)\nWriting library                  : XviD 1.1.2 (UTC 2006-11-01)\n\nAudio\nID                               : 1\nFormat                           : AC-3\nCodec ID                         : 2000\nDuration                         : 1h 45mn\nBit rate                         : 384 Kbps\nChannel(s)                       : 6 channels\nChannel positions                : Front: L C R, Side: L R, LFE\nSampling rate                    : 48.0 KHz\nStream size                      : 290 MiB (21%)\n\n\n","torrent":{"xt":"urn:btih:d64423835590de1a0c0061a4a1d1d55a9d2ab002","amp;dn":"Coco.Avant.Chanel.2009.SWESUB.DVDRip.XviD.AC3.%285.1%29.-Zen_Bud","amp;tr":["udp%3A%2F%2Ftracker.openbittorrent.com%3A80","udp%3A%2F%2Fopen.demonii.com%3A1337","udp%3A%2F%2Ftracker.coppersurfer.tk%3A6969","udp%3A%2F%2Fexodus.desync.com%3A6969"],"infoHash":"d64423835590de1a0c0061a4a1d1d55a9d2ab002","infoHashBuffer":{"type":"Buffer","data":[214,68,35,131,85,144,222,26,12,0,97,164,161,209,213,90,157,42,176,2]},"announce":[],"urlList":[]}}